<?xml version="1.0" encoding="UTF-8" standalone="no"?>
<!-- Created with Inkscape (http://www.inkscape.org/) -->

<svg
   xmlns:dc="http://purl.org/dc/elements/1.1/"
   xmlns:cc="http://creativecommons.org/ns#"
   xmlns:rdf="http://www.w3.org/1999/02/22-rdf-syntax-ns#"
   xmlns:svg="http://www.w3.org/2000/svg"
   xmlns="http://www.w3.org/2000/svg"
   xmlns:sodipodi="http://sodipodi.sourceforge.net/DTD/sodipodi-0.dtd"
   xmlns:inkscape="http://www.inkscape.org/namespaces/inkscape"
   width="500"
   height="500"
   id="svg2"
   version="1.1"
   inkscape:version="0.48.4 r9939"
   sodipodi:docname="drawing4.svg"
   inkscape:export-filename="/home/sonerik/drawing4.png"
   inkscape:export-xdpi="174.48424"
   inkscape:export-ydpi="174.48424">
  <defs
     id="defs4" />
  <sodipodi:namedview
     id="base"
     pagecolor="#ffffff"
     bordercolor="#666666"
     borderopacity="1.0"
     inkscape:pageopacity="0.0"
     inkscape:pageshadow="2"
     inkscape:zoom="0.7"
     inkscape:cx="132.7744"
     inkscape:cy="281.07125"
     inkscape:document-units="px"
     inkscape:current-layer="g3532"
     showgrid="false"
     inkscape:window-width="1920"
     inkscape:window-height="1029"
     inkscape:window-x="0"
     inkscape:window-y="0"
     inkscape:window-maximized="1"
     fit-margin-top="0"
     fit-margin-left="0"
     fit-margin-right="0"
     fit-margin-bottom="0" />
  <metadata
     id="metadata7">
    <rdf:RDF>
      <cc:Work
         rdf:about="">
        <dc:format>image/svg+xml</dc:format>
        <dc:type
           rdf:resource="http://purl.org/dc/dcmitype/StillImage" />
        <dc:title></dc:title>
      </cc:Work>
    </rdf:RDF>
  </metadata>
  <g
     inkscape:label="Layer 1"
     inkscape:groupmode="layer"
     id="layer1"
     transform="translate(-132.543,-294.72256)">
    <g
       id="g2986"
       transform="matrix(9.860439,0,0,9.860439,56.715831,177.57621)">
      <path
         id="path2990"
         d="m 59.883,7.785 c 0.042,-0.092 0.052,-0.151 0.052,-0.151 0,0 -0.02,0.061 -0.052,0.151 z"
         inkscape:connector-curvature="0"
         inkscape:export-filename="/home/sonerik/g3539.png"
         inkscape:export-xdpi="174.48424"
         inkscape:export-ydpi="174.48424" />
      <g
         id="g3532"
         transform="matrix(0.86468521,0,0,0.86468521,4.935744,9.332997)">
        <path
           id="path3518"
           d="m 32.647968,2.946093 c -15.817342,0 -29.1802863,12.803813 -29.1802863,27.959247 0,8.544385 4.2670591,18.749142 10.8700423,25.998418 l 0.186596,0.205214 0.272492,-0.05302 c 0.06911,-0.01276 1.581636,-0.329914 2.2135,-1.480686 1.549056,1.262707 2.924348,1.386426 4.370725,0.870935 0.643712,1.230304 0.893496,2.570581 -0.83031,3.057597 -1.623101,0.458537 -3.792173,-0.137468 -5.393555,-0.379012 -2.668639,-0.402574 -8.3228379,-0.519419 -11.0181343,-0.419267 -1.2696526,0.04713 -1.2736017,2.010906 0,1.963776 3.2541015,-0.120773 9.3683763,0.200304 12.5879233,0.654918 1.610266,0.227799 3.666788,0.542984 5.210907,-0.20325 2.667652,-1.288236 2.218435,-3.486682 1.145253,-5.521153 0.805628,-0.488981 1.664569,-1.106589 2.595581,-1.769363 -2.581759,-1.128186 -5.962233,-6.173124 -8.270512,-10.572962 -1.633962,-3.114548 -4.829814,-9.715778 -4.469453,-13.05125 -1.995309,1.361879 -3.5483139,2.548981 -4.3904708,4.106254 -0.233,-1.468903 -0.3583856,-2.910315 -0.3583856,-4.305578 0,-12.009465 12.6461744,-20.0766532 24.4571014,-20.0766532 14.629633,0 24.456113,10.3814972 24.456113,20.0766532 0,1.387407 -0.113538,2.808199 -0.329755,4.246664 -0.849067,-1.528799 -2.388251,-2.703136 -4.35789,-4.04734 0.36036,3.335472 -2.835491,9.936702 -4.469453,13.05125 -2.308279,4.399838 -5.688753,9.445758 -8.270512,10.572963 3.547326,2.530326 5.923729,4.309505 9.079102,1.386426 0.645686,0.996615 1.818584,1.519962 1.878809,1.545491 l 0.326791,0.14041 0.23695,-0.265109 c 6.458839,-7.221783 10.631118,-17.32246 10.631118,-25.733309 0,-15.155434 -13.362944,-27.958265 -29.180287,-27.958265 z"
           inkscape:connector-curvature="0"
           inkscape:export-filename="/home/sonerik/g3539.png"
           inkscape:export-xdpi="180"
           inkscape:export-ydpi="180" />
        <path
           id="path3520"
           d="m 14.800762,29.201766 c -0.124399,0 -0.233987,0.02946 -0.335678,0.07364 -0.03654,0.01572 -0.07602,0.02749 -0.109589,0.0491 -1.43453,0.933775 0.495619,6.932126 3.929407,13.477388 3.133652,5.972822 6.692825,10.282326 8.382076,10.282326 0.03159,0 0.06022,-0.0089 0.08984,-0.01178 0.124399,-0.01276 0.241886,-0.04418 0.342589,-0.109972 0.110577,-0.07168 0.197458,-0.184594 0.272492,-0.316168 0.004,-0.0079 0.0079,-0.01767 0.01185,-0.02553 C 28.249601,51.021267 26.632423,45.430399 23.480013,39.421247 20.35031,33.45628 16.538389,29.200781 14.800763,29.201763 z"
           inkscape:connector-curvature="0"
           inkscape:export-filename="/home/sonerik/g3539.png"
           inkscape:export-xdpi="174.48424"
           inkscape:export-ydpi="174.48424" />
        <path
           id="path3522"
           d="m 47.072247,42.801889 c 3.433789,-6.545262 5.363937,-12.544594 3.929407,-13.477388 -0.03356,-0.02161 -0.07306,-0.03338 -0.109588,-0.0491 -0.101691,-0.04418 -0.211281,-0.07364 -0.335679,-0.07364 -1.73664,0 -5.549546,4.254517 -8.679249,10.220466 -3.152411,6.009152 -4.769589,11.601002 -3.903737,13.199515 0.004,0.0079 0.0079,0.01767 0.01185,0.02553 0.07503,0.131573 0.161916,0.24449 0.272492,0.316167 0.102678,0.06676 0.222139,0.09917 0.349499,0.110953 0.02764,0.003 0.05331,0.0108 0.08294,0.0108 1.688263,0 5.248423,-4.310486 8.382075,-10.283308 z"
           inkscape:connector-curvature="0"
           inkscape:export-filename="/home/sonerik/g3539.png"
           inkscape:export-xdpi="174.48424"
           inkscape:export-ydpi="174.48424" />
        <g
           id="g3539"
           transform="matrix(0.72252498,0,0,0.75550927,9.6415582,2.8195917)"
           inkscape:export-xdpi="174.48424"
           inkscape:export-ydpi="174.48424">
          <g
             id="g3541">
            <g
               id="g3543">
              <path
                 id="path3545"
                 d="M 50.198,33.465 C 45.26,28.622 38.724,25.956 31.787,25.956 c -7.028,0 -13.628,2.729 -18.583,7.686 -0.253,0.252 -0.392,0.59 -0.392,0.95 0,0.36 0.14,0.698 0.395,0.95 l 5.17,5.171 c 0.509,0.508 1.393,0.508 1.899,-0.002 3.07,-3.069 7.159,-4.76 11.514,-4.76 4.353,0 8.443,1.69 11.515,4.762 0.253,0.253 0.591,0.393 0.948,0.393 0.36,0 0.698,-0.14 0.95,-0.395 l 5.191,-5.188 c 0.523,-0.526 0.526,-1.379 0.002,-1.9 l -0.198,-0.158 z"
                 inkscape:connector-curvature="0" />
            </g>
          </g>
          <g
             id="g3547">
            <g
               id="g3549">
              <path
                 id="path3551"
                 d="M 59.563,24.452 59.359,24.295 C 52.033,17.062 42.315,13.079 31.988,13.079 c -10.419,0 -20.205,4.047 -27.551,11.394 -0.524,0.524 -0.522,1.378 0.002,1.904 l 5.32,5.32 c 0.51,0.508 1.392,0.507 1.9,-10e-4 5.42,-5.421 12.639,-8.405 20.329,-8.405 7.688,0 14.908,2.985 20.331,8.407 0.253,0.253 0.591,0.393 0.948,0.393 0.36,0 0.698,-0.14 0.95,-0.393 l 5.341,-5.341 c 0.255,-0.254 0.396,-0.595 0.396,-0.958 10e-4,-0.359 -0.139,-0.696 -0.391,-0.947 z"
                 inkscape:connector-curvature="0" />
            </g>
          </g>
          <g
             id="g3553">
            <g
               id="g3555">
              <path
                 id="path3557"
                 d="m 31.67,39.81 c -2.697,0 -5.286,0.892 -7.692,2.647 l -0.728,0.532 8.471,7.932 8.722,-7.805 -0.678,-0.551 C 39.628,42.452 36.321,39.81 31.67,39.81 z"
                 inkscape:connector-curvature="0" />
            </g>
          </g>
        </g>
      </g>
    </g>
  </g>
</svg>
