<?xml version="1.0" encoding="UTF-8" standalone="no"?>
<!-- Generator: Adobe Illustrator 17.0.0, SVG Export Plug-In . SVG Version: 6.00 Build 0)  -->

<svg
   xmlns:dc="http://purl.org/dc/elements/1.1/"
   xmlns:cc="http://creativecommons.org/ns#"
   xmlns:rdf="http://www.w3.org/1999/02/22-rdf-syntax-ns#"
   xmlns:svg="http://www.w3.org/2000/svg"
   xmlns="http://www.w3.org/2000/svg"
   xmlns:sodipodi="http://sodipodi.sourceforge.net/DTD/sodipodi-0.dtd"
   xmlns:inkscape="http://www.inkscape.org/namespaces/inkscape"
   version="1.1"
   id="Capa_1"
   x="0px"
   y="0px"
   width="64px"
   height="64px"
   viewBox="0 0 64 64"
   style="enable-background:new 0 0 64 64;"
   xml:space="preserve"
   inkscape:version="0.48.4 r9939"
   sodipodi:docname="local_music_.svg"><metadata
     id="metadata15"><rdf:RDF><cc:Work
         rdf:about=""><dc:format>image/svg+xml</dc:format><dc:type
           rdf:resource="http://purl.org/dc/dcmitype/StillImage" /><dc:title></dc:title></cc:Work></rdf:RDF></metadata><defs
     id="defs13" /><sodipodi:namedview
     pagecolor="#ffffff"
     bordercolor="#666666"
     borderopacity="1"
     objecttolerance="10"
     gridtolerance="10"
     guidetolerance="10"
     inkscape:pageopacity="0"
     inkscape:pageshadow="2"
     inkscape:window-width="1920"
     inkscape:window-height="1029"
     id="namedview11"
     showgrid="false"
     inkscape:zoom="3.6875"
     inkscape:cx="32"
     inkscape:cy="32"
     inkscape:window-x="0"
     inkscape:window-y="0"
     inkscape:window-maximized="1"
     inkscape:current-layer="Capa_1" /><path
     d="M32.944,2.074c-16.021,0-29.556,13.04-29.556,28.475c0,8.702,4.322,19.095,11.01,26.478l0.189,0.209l0.276-0.054  c0.07-0.013,1.602-0.336,2.242-1.508c1.569,1.286,2.962,1.412,4.427,0.887c0.652,1.253,0.905,2.618-0.841,3.114  c-1.644,0.467-3.841-0.14-5.463-0.386c-2.703-0.41-8.43-0.529-11.16-0.427c-1.286,0.048-1.29,2.048,0,2  c3.296-0.123,9.489,0.204,12.75,0.667c1.631,0.232,3.714,0.553,5.278-0.207c2.702-1.312,2.247-3.551,1.16-5.623  c0.816-0.498,1.686-1.127,2.629-1.802c-2.615-1.149-6.039-6.287-8.377-10.768c-1.655-3.172-4.892-9.895-4.527-13.292  c-2.021,1.387-3.594,2.596-4.447,4.182c-0.236-1.496-0.363-2.964-0.363-4.385c0-12.231,12.809-20.447,24.772-20.447  c14.818,0,24.771,10.573,24.771,20.447c0,1.413-0.115,2.86-0.334,4.325c-0.86-1.557-2.419-2.753-4.414-4.122  c0.365,3.397-2.872,10.12-4.527,13.292c-2.338,4.481-5.762,9.62-8.377,10.768c3.593,2.577,6,4.389,9.196,1.412  c0.654,1.015,1.842,1.548,1.903,1.574l0.331,0.143l0.24-0.27C58.274,49.401,62.5,39.114,62.5,30.548  C62.5,15.113,48.965,2.074,32.944,2.074z"
     id="path3"
     style="fill:#ffffff" /><path
     d="M14.867,28.814c-0.126,0-0.237,0.03-0.34,0.075c-0.037,0.016-0.077,0.028-0.111,0.05c-1.453,0.951,0.502,7.06,3.98,13.726  c3.174,6.083,6.779,10.472,8.49,10.472c0.032,0,0.061-0.009,0.091-0.012c0.126-0.013,0.245-0.045,0.347-0.112  c0.112-0.073,0.2-0.188,0.276-0.322c0.004-0.008,0.008-0.018,0.012-0.026c0.877-1.629-0.761-7.323-3.954-13.443  C20.488,33.147,16.627,28.813,14.867,28.814z"
     id="path5"
     style="fill:#ffffff" /><path
     d="M47.554,42.665c3.478-6.666,5.433-12.776,3.98-13.726c-0.034-0.022-0.074-0.034-0.111-0.05  c-0.103-0.045-0.214-0.075-0.34-0.075c-1.759,0-5.621,4.333-8.791,10.409c-3.193,6.12-4.831,11.815-3.954,13.443  c0.004,0.008,0.008,0.018,0.012,0.026c0.076,0.134,0.164,0.249,0.276,0.322c0.104,0.068,0.225,0.101,0.354,0.113  c0.028,0.003,0.054,0.011,0.084,0.011C40.774,53.138,44.38,48.748,47.554,42.665z"
     id="path7"
     style="fill:#ffffff" /><path
     d="M34.491,14.001c-1.033-0.176-1.878,0.585-1.878,1.633v10.827c-0.611-0.224-1.269-0.353-1.958-0.353  c-3.146,0-5.696,2.55-5.696,5.696c0,3.146,2.55,5.696,5.696,5.696c2.305,0,4.288-1.369,5.184-3.338  c0.434-0.953,0.497-2.674,0.501-3.721c0.011-3.35,0.011-9.962,0.011-9.962c7.36,0,6.918,4.41,6.057,6.943  c-0.337,0.992-0.137,1.158,0.572,0.386C51.961,18.026,39.457,14.846,34.491,14.001z"
     id="path9"
     style="fill:#ffffff" /></svg>