<?xml version="1.0" encoding="iso-8859-1"?>
<!-- Generator: Adobe Illustrator 16.0.0, SVG Export Plug-In . SVG Version: 6.00 Build 0)  -->
<!DOCTYPE svg PUBLIC "-//W3C//DTD SVG 1.1//EN" "http://www.w3.org/Graphics/SVG/1.1/DTD/svg11.dtd">
<svg version="1.1" id="Capa_1" xmlns="http://www.w3.org/2000/svg" xmlns:xlink="http://www.w3.org/1999/xlink" x="0px" y="0px"
	 width="30.816px" height="30.538px" viewBox="0 0 30.816 30.538" style="enable-background:new 0 0 30.816 30.538;"
	 xml:space="preserve">
<path d="M29.177,9.651h-0.73c0.004-0.022,0.014-0.042,0.014-0.067c0-0.354-0.287-0.642-0.643-0.642h-0.492L9.128,0.05
	C8.884-0.069,8.589,0.033,8.47,0.277C8.35,0.521,8.451,0.816,8.696,0.936l16.661,8.141c-0.156,0.119-0.266,0.298-0.266,0.507
	c0,0.025,0.012,0.045,0.014,0.067H1.64C0.732,9.651,0,10.389,0,11.294v17.604c0,0.904,0.732,1.639,1.64,1.639h27.538
	c0.904,0,1.639-0.735,1.639-1.639V11.294C30.816,10.389,30.082,9.651,29.177,9.651z M5.555,21.864c0-0.364,0.296-0.661,0.661-0.661
	c0.367,0,0.663,0.297,0.663,0.661c0,0.366-0.296,0.662-0.663,0.662C5.851,22.526,5.555,22.23,5.555,21.864z M5.909,23.477
	c0,0.366-0.297,0.663-0.662,0.663c-0.366,0-0.662-0.297-0.662-0.663c0-0.365,0.296-0.661,0.662-0.661
	C5.612,22.816,5.909,23.112,5.909,23.477z M7.374,22.816c0.365,0,0.66,0.296,0.66,0.661c0,0.366-0.295,0.663-0.66,0.663
	c-0.366,0-0.664-0.297-0.664-0.663C6.71,23.112,7.008,22.816,7.374,22.816z M7.601,21.864c0-0.364,0.297-0.661,0.662-0.661
	c0.366,0,0.662,0.297,0.662,0.661c0,0.366-0.296,0.662-0.662,0.662C7.897,22.526,7.601,22.23,7.601,21.864z M9.419,22.816
	c0.366,0,0.662,0.296,0.662,0.661c0,0.366-0.296,0.663-0.662,0.663c-0.365,0-0.662-0.297-0.662-0.663
	C8.757,23.112,9.054,22.816,9.419,22.816z M9.847,21.864c0-0.364,0.297-0.661,0.662-0.661s0.662,0.297,0.662,0.661
	c0,0.366-0.297,0.662-0.662,0.662S9.847,22.23,9.847,21.864z M11.667,22.816c0.364,0,0.66,0.296,0.66,0.661
	c0,0.366-0.296,0.663-0.66,0.663c-0.367,0-0.664-0.297-0.664-0.663C11.003,23.112,11.3,22.816,11.667,22.816z M11.974,21.864
	c0-0.364,0.297-0.661,0.662-0.661s0.662,0.297,0.662,0.661c0,0.366-0.297,0.662-0.662,0.662S11.974,22.23,11.974,21.864z
	 M13.792,22.816c0.365,0,0.662,0.296,0.662,0.661c0,0.366-0.297,0.663-0.662,0.663s-0.662-0.297-0.662-0.663
	C13.13,23.112,13.427,22.816,13.792,22.816z M14.085,21.864c0-0.364,0.295-0.661,0.66-0.661c0.367,0,0.662,0.297,0.662,0.661
	c0,0.366-0.295,0.662-0.662,0.662C14.38,22.526,14.085,22.23,14.085,21.864z M14.745,18.853c-0.365,0-0.66-0.296-0.66-0.663
	c0-0.366,0.295-0.664,0.66-0.664c0.367,0,0.662,0.298,0.662,0.664C15.407,18.556,15.112,18.853,14.745,18.853z M14.497,20.094
	c0,0.366-0.296,0.664-0.662,0.664c-0.365,0-0.662-0.298-0.662-0.664c0-0.365,0.297-0.662,0.662-0.662
	C14.201,19.433,14.497,19.729,14.497,20.094z M12.636,18.853c-0.365,0-0.662-0.296-0.662-0.663c0-0.366,0.297-0.664,0.662-0.664
	s0.662,0.298,0.662,0.664C13.298,18.556,13.001,18.853,12.636,18.853z M12.371,20.094c0,0.366-0.296,0.664-0.663,0.664
	c-0.364,0-0.66-0.298-0.66-0.664c0-0.365,0.296-0.662,0.66-0.662C12.075,19.433,12.371,19.729,12.371,20.094z M10.509,18.853
	c-0.365,0-0.662-0.296-0.662-0.663c0-0.366,0.297-0.664,0.662-0.664s0.662,0.298,0.662,0.664
	C11.171,18.556,10.874,18.853,10.509,18.853z M10.124,20.094c0,0.366-0.297,0.664-0.662,0.664s-0.66-0.298-0.66-0.664
	c0-0.365,0.295-0.662,0.66-0.662S10.124,19.729,10.124,20.094z M8.263,18.853c-0.365,0-0.662-0.296-0.662-0.663
	c0-0.366,0.297-0.664,0.662-0.664c0.366,0,0.662,0.298,0.662,0.664C8.925,18.556,8.629,18.853,8.263,18.853z M8.078,20.094
	c0,0.366-0.296,0.664-0.661,0.664c-0.366,0-0.662-0.298-0.662-0.664c0-0.365,0.296-0.662,0.662-0.662
	C7.782,19.433,8.078,19.729,8.078,20.094z M6.216,18.853c-0.365,0-0.661-0.296-0.661-0.663c0-0.366,0.296-0.664,0.661-0.664
	c0.367,0,0.663,0.298,0.663,0.664C6.879,18.556,6.583,18.853,6.216,18.853z M5.952,20.094c0,0.366-0.295,0.664-0.662,0.664
	c-0.365,0-0.662-0.298-0.662-0.664c0-0.365,0.297-0.662,0.662-0.662C5.657,19.433,5.952,19.729,5.952,20.094z M4.091,18.853
	c-0.365,0-0.662-0.296-0.662-0.663c0-0.366,0.297-0.664,0.662-0.664s0.662,0.298,0.662,0.664
	C4.753,18.556,4.456,18.853,4.091,18.853z M4.091,21.203c0.365,0,0.662,0.297,0.662,0.661c0,0.366-0.297,0.662-0.662,0.662
	s-0.662-0.295-0.662-0.662C3.429,21.5,3.726,21.203,4.091,21.203z M3.429,25.162c0-0.366,0.297-0.662,0.662-0.662
	s0.662,0.295,0.662,0.662c0,0.367-0.297,0.663-0.662,0.663S3.429,25.529,3.429,25.162z M5.21,27.557
	c-0.365,0-0.663-0.296-0.663-0.663c0-0.365,0.298-0.66,0.663-0.66s0.662,0.295,0.662,0.66C5.872,27.261,5.575,27.557,5.21,27.557z
	 M5.555,25.162c0-0.366,0.296-0.662,0.661-0.662c0.367,0,0.663,0.295,0.663,0.662c0,0.367-0.296,0.663-0.663,0.663
	C5.851,25.824,5.555,25.529,5.555,25.162z M7.335,27.557c-0.365,0-0.662-0.296-0.662-0.663c0-0.365,0.297-0.66,0.662-0.66
	c0.367,0,0.662,0.295,0.662,0.66C7.997,27.261,7.702,27.557,7.335,27.557z M7.601,25.162c0-0.366,0.297-0.662,0.662-0.662
	c0.366,0,0.662,0.295,0.662,0.662c0,0.367-0.296,0.663-0.662,0.663C7.897,25.824,7.601,25.529,7.601,25.162z M9.382,27.557
	c-0.365,0-0.662-0.296-0.662-0.663c0-0.365,0.297-0.66,0.662-0.66s0.662,0.295,0.662,0.66C10.044,27.261,9.747,27.557,9.382,27.557z
	 M9.847,25.162c0-0.366,0.297-0.662,0.662-0.662s0.662,0.295,0.662,0.662c0,0.367-0.297,0.663-0.662,0.663
	S9.847,25.529,9.847,25.162z M11.628,27.557c-0.365,0-0.662-0.296-0.662-0.663c0-0.365,0.297-0.66,0.662-0.66
	s0.662,0.295,0.662,0.66C12.29,27.261,11.993,27.557,11.628,27.557z M11.974,25.162c0-0.366,0.297-0.662,0.662-0.662
	s0.662,0.295,0.662,0.662c0,0.367-0.297,0.663-0.662,0.663S11.974,25.529,11.974,25.162z M13.754,27.557
	c-0.364,0-0.661-0.296-0.661-0.663c0-0.365,0.297-0.66,0.661-0.66c0.366,0,0.663,0.295,0.663,0.66
	C14.417,27.261,14.12,27.557,13.754,27.557z M14.085,25.162c0-0.366,0.295-0.662,0.66-0.662c0.367,0,0.662,0.295,0.662,0.662
	c0,0.367-0.295,0.663-0.662,0.663C14.38,25.824,14.085,25.529,14.085,25.162z M15.864,27.557c-0.365,0-0.661-0.296-0.661-0.663
	c0-0.365,0.296-0.66,0.661-0.66c0.366,0,0.662,0.295,0.662,0.66C16.526,27.261,16.23,27.557,15.864,27.557z M15.901,24.14
	c-0.364,0-0.66-0.297-0.66-0.663c0-0.365,0.296-0.661,0.66-0.661c0.367,0,0.662,0.296,0.662,0.661
	C16.563,23.843,16.269,24.14,15.901,24.14z M15.946,20.758c-0.366,0-0.662-0.298-0.662-0.664c0-0.365,0.296-0.662,0.662-0.662
	c0.365,0,0.662,0.297,0.662,0.662C16.608,20.46,16.312,20.758,15.946,20.758z M18.392,15.081H6.851l-0.342-1.269l-0.354,1.269H3.469
	v-2.889h1.304v0.723h0.723v-0.723h2.166v0.723h0.722v-0.723h2.106v0.723h0.723v-0.723h2.045v0.723h0.723v-0.723h2.137v0.723h0.723
	v-0.723h1.553V15.081z M20.317,12.233h6.739v2.888h-6.739V12.233z M24.33,26.433c-2.105,0-3.812-1.707-3.812-3.811
	c0-2.104,1.707-3.811,3.812-3.811s3.811,1.707,3.811,3.811C28.14,24.727,26.435,26.433,24.33,26.433z"/>
<path d="M24.33,20.015c-0.17,0-0.334,0.018-0.494,0.049l-0.732-0.731v0.995l0.018-0.002c-0.828,0.438-1.398,1.296-1.398,2.297
	c0,1.439,1.168,2.607,2.607,2.607s2.607-1.168,2.607-2.607C26.937,21.184,25.769,20.015,24.33,20.015z"/>
<g>
</g>
<g>
</g>
<g>
</g>
<g>
</g>
<g>
</g>
<g>
</g>
<g>
</g>
<g>
</g>
<g>
</g>
<g>
</g>
<g>
</g>
<g>
</g>
<g>
</g>
<g>
</g>
<g>
</g>
</svg>
