<?xml version="1.0" encoding="UTF-8" standalone="no"?>
<!-- Generator: Adobe Illustrator 16.0.0, SVG Export Plug-In . SVG Version: 6.00 Build 0)  -->

<svg
   xmlns:dc="http://purl.org/dc/elements/1.1/"
   xmlns:cc="http://creativecommons.org/ns#"
   xmlns:rdf="http://www.w3.org/1999/02/22-rdf-syntax-ns#"
   xmlns:svg="http://www.w3.org/2000/svg"
   xmlns="http://www.w3.org/2000/svg"
   xmlns:sodipodi="http://sodipodi.sourceforge.net/DTD/sodipodi-0.dtd"
   xmlns:inkscape="http://www.inkscape.org/namespaces/inkscape"
   version="1.1"
   id="Capa_1"
   x="0px"
   y="0px"
   width="30.816px"
   height="30.538px"
   viewBox="0 0 30.816 30.538"
   style="enable-background:new 0 0 30.816 30.538;"
   xml:space="preserve"
   inkscape:version="0.48.4 r9939"
   sodipodi:docname="radio_.svg"><metadata
     id="metadata41"><rdf:RDF><cc:Work
         rdf:about=""><dc:format>image/svg+xml</dc:format><dc:type
           rdf:resource="http://purl.org/dc/dcmitype/StillImage" /><dc:title></dc:title></cc:Work></rdf:RDF></metadata><defs
     id="defs39" /><sodipodi:namedview
     pagecolor="#ffffff"
     bordercolor="#666666"
     borderopacity="1"
     objecttolerance="10"
     gridtolerance="10"
     guidetolerance="10"
     inkscape:pageopacity="0"
     inkscape:pageshadow="2"
     inkscape:window-width="1920"
     inkscape:window-height="1029"
     id="namedview37"
     showgrid="false"
     inkscape:zoom="7.7280765"
     inkscape:cx="15.408"
     inkscape:cy="15.269"
     inkscape:window-x="0"
     inkscape:window-y="0"
     inkscape:window-maximized="1"
     inkscape:current-layer="Capa_1" /><path
     d="m 27.326987,10.405818 h -0.631913 c 0.0035,-0.01904 0.01212,-0.03636 0.01212,-0.058 0,-0.306434 -0.248438,-0.5557372 -0.556603,-0.5557372 H 25.724698 L 9.9718834,2.094862 C 9.7606686,1.9918516 9.5053064,2.0801463 9.402296,2.291361 9.2984198,2.5025758 9.3858489,2.757938 9.5979293,2.8618141 L 24.020263,9.9089435 c -0.135038,0.1030105 -0.230258,0.2579585 -0.230258,0.4388765 0,0.02164 0.01039,0.03895 0.01212,0.058 H 3.4900132 c -0.785996,0 -1.4196403,0.638838 -1.4196403,1.422237 v 15.238627 c 0,0.782534 0.6336443,1.418775 1.4196403,1.418775 H 27.327852 c 0.782534,0 1.418775,-0.636241 1.418775,-1.418775 V 11.828055 c -8.66e-4,-0.783399 -0.636241,-1.422237 -1.41964,-1.422237 z M 6.8789718,20.97781 c 0,-0.315091 0.2562278,-0.572184 0.5721843,-0.572184 0.3176878,0 0.5739156,0.257093 0.5739156,0.572184 0,0.316822 -0.2562278,0.57305 -0.5739156,0.57305 -0.3159565,0 -0.5721843,-0.256228 -0.5721843,-0.57305 z m 0.3064346,1.396268 c 0,0.316822 -0.2570935,0.573916 -0.57305,0.573916 -0.3168222,0 -0.5730499,-0.257094 -0.5730499,-0.573916 0,-0.315956 0.2562277,-0.572184 0.5730499,-0.572184 0.3159565,0 0.57305,0.256228 0.57305,0.572184 z m 1.2681543,-0.572184 c 0.3159565,0 0.5713187,0.256228 0.5713187,0.572184 0,0.316822 -0.2553622,0.573916 -0.5713187,0.573916 -0.3168222,0 -0.5747812,-0.257094 -0.5747812,-0.573916 0,-0.315956 0.257959,-0.572184 0.5747812,-0.572184 z m 0.196499,-0.824084 c 0,-0.315091 0.2570934,-0.572184 0.5730499,-0.572184 0.3168222,0 0.57305,0.257093 0.57305,0.572184 0,0.316822 -0.2562278,0.57305 -0.57305,0.57305 -0.3168221,0 -0.5730499,-0.256228 -0.5730499,-0.57305 z m 1.5737233,0.824084 c 0.316822,0 0.57305,0.256228 0.57305,0.572184 0,0.316822 -0.256228,0.573916 -0.57305,0.573916 -0.3159566,0 -0.57305,-0.257094 -0.57305,-0.573916 0,-0.315956 0.2570934,-0.572184 0.57305,-0.572184 z m 0.370491,-0.824084 c 0,-0.315091 0.257094,-0.572184 0.57305,-0.572184 0.315957,0 0.57305,0.257093 0.57305,0.572184 0,0.316822 -0.257093,0.57305 -0.57305,0.57305 -0.315956,0 -0.57305,-0.256228 -0.57305,-0.57305 z m 1.575455,0.824084 c 0.315091,0 0.571319,0.256228 0.571319,0.572184 0,0.316822 -0.256228,0.573916 -0.571319,0.573916 -0.317688,0 -0.574781,-0.257094 -0.574781,-0.573916 0,-0.315956 0.257093,-0.572184 0.574781,-0.572184 z m 0.26575,-0.824084 c 0,-0.315091 0.257093,-0.572184 0.57305,-0.572184 0.315956,0 0.57305,0.257093 0.57305,0.572184 0,0.316822 -0.257094,0.57305 -0.57305,0.57305 -0.315957,0 -0.57305,-0.256228 -0.57305,-0.57305 z m 1.573723,0.824084 c 0.315957,0 0.57305,0.256228 0.57305,0.572184 0,0.316822 -0.257093,0.573916 -0.57305,0.573916 -0.315956,0 -0.57305,-0.257094 -0.57305,-0.573916 0,-0.315956 0.257094,-0.572184 0.57305,-0.572184 z m 0.253631,-0.824084 c 0,-0.315091 0.255362,-0.572184 0.571319,-0.572184 0.317687,0 0.57305,0.257093 0.57305,0.572184 0,0.316822 -0.255363,0.57305 -0.57305,0.57305 -0.315957,0 -0.571319,-0.256228 -0.571319,-0.57305 z m 0.571319,-2.606425 c -0.315957,0 -0.571319,-0.256228 -0.571319,-0.573916 0,-0.316822 0.255362,-0.574781 0.571319,-0.574781 0.317687,0 0.57305,0.257959 0.57305,0.574781 0,0.316823 -0.255363,0.573916 -0.57305,0.573916 z m -0.214678,1.074252 c 0,0.316822 -0.256227,0.574781 -0.57305,0.574781 -0.315956,0 -0.57305,-0.257959 -0.57305,-0.574781 0,-0.315956 0.257094,-0.57305 0.57305,-0.57305 0.316823,8.66e-4 0.57305,0.257094 0.57305,0.57305 z m -1.610945,-1.074252 c -0.315957,0 -0.57305,-0.256228 -0.57305,-0.573916 0,-0.316822 0.257093,-0.574781 0.57305,-0.574781 0.315956,0 0.57305,0.257959 0.57305,0.574781 0,0.316823 -0.257094,0.573916 -0.57305,0.573916 z m -0.229393,1.074252 c 0,0.316822 -0.256228,0.574781 -0.573916,0.574781 -0.315091,0 -0.571319,-0.257959 -0.571319,-0.574781 0,-0.315956 0.256228,-0.57305 0.571319,-0.57305 0.317688,8.66e-4 0.573916,0.257094 0.573916,0.57305 z m -1.611812,-1.074252 c -0.315956,0 -0.57305,-0.256228 -0.57305,-0.573916 0,-0.316822 0.257094,-0.574781 0.57305,-0.574781 0.315957,0 0.57305,0.257959 0.57305,0.574781 0,0.316823 -0.257093,0.573916 -0.57305,0.573916 z m -0.333269,1.074252 c 0,0.316822 -0.257093,0.574781 -0.57305,0.574781 -0.3159563,0 -0.5713184,-0.257959 -0.5713184,-0.574781 0,-0.315956 0.2553621,-0.57305 0.5713184,-0.57305 0.315957,0 0.57305,0.257094 0.57305,0.57305 z M 9.2231096,18.371385 c -0.3159565,0 -0.5730499,-0.256228 -0.5730499,-0.573916 0,-0.316822 0.2570934,-0.574781 0.5730499,-0.574781 0.3168222,0 0.57305,0.257959 0.57305,0.574781 0,0.316823 -0.2562278,0.573916 -0.57305,0.573916 z m -0.1601423,1.074252 c 0,0.316822 -0.2562278,0.574781 -0.5721843,0.574781 -0.3168222,0 -0.57305,-0.257959 -0.57305,-0.574781 0,-0.315956 0.2562278,-0.57305 0.57305,-0.57305 0.3159565,8.66e-4 0.5721843,0.257094 0.5721843,0.57305 z M 7.4511561,18.371385 c -0.3159565,0 -0.5721843,-0.256228 -0.5721843,-0.573916 0,-0.316822 0.2562278,-0.574781 0.5721843,-0.574781 0.3176878,0 0.5739156,0.257959 0.5739156,0.574781 0,0.316823 -0.2562278,0.573916 -0.5739156,0.573916 z m -0.2285275,1.074252 c 0,0.316822 -0.2553621,0.574781 -0.5730499,0.574781 -0.3159566,0 -0.57305,-0.257959 -0.57305,-0.574781 0,-0.315956 0.2570934,-0.57305 0.57305,-0.57305 0.3176878,8.66e-4 0.5730499,0.257094 0.5730499,0.57305 z M 5.6116831,18.371385 c -0.3159566,0 -0.57305,-0.256228 -0.57305,-0.573916 0,-0.316822 0.2570934,-0.574781 0.57305,-0.574781 0.3159565,0 0.5730499,0.257959 0.5730499,0.574781 0,0.316823 -0.2570934,0.573916 -0.5730499,0.573916 z m 0,2.034241 c 0.3159565,0 0.5730499,0.257093 0.5730499,0.572184 0,0.316822 -0.2570934,0.57305 -0.5730499,0.57305 -0.3159566,0 -0.57305,-0.255362 -0.57305,-0.57305 0,-0.315091 0.2570934,-0.572184 0.57305,-0.572184 z m -0.57305,3.427046 c 0,-0.316822 0.2570934,-0.57305 0.57305,-0.57305 0.3159565,0 0.5730499,0.255362 0.5730499,0.57305 0,0.317688 -0.2570934,0.573916 -0.5730499,0.573916 -0.3159566,0 -0.57305,-0.256228 -0.57305,-0.573916 z m 1.5416948,2.073195 c -0.3159565,0 -0.5739156,-0.256228 -0.5739156,-0.573916 0,-0.315957 0.2579591,-0.571319 0.5739156,-0.571319 0.3159566,0 0.57305,0.255362 0.57305,0.571319 0,0.317688 -0.2570934,0.573916 -0.57305,0.573916 z m 0.2986439,-2.073195 c 0,-0.316822 0.2562278,-0.57305 0.5721843,-0.57305 0.3176878,0 0.5739156,0.255362 0.5739156,0.57305 0,0.317688 -0.2562278,0.573916 -0.5739156,0.573916 C 7.1351996,24.405722 6.8789718,24.15036 6.8789718,23.832672 z m 1.5408292,2.073195 c -0.3159566,0 -0.57305,-0.256228 -0.57305,-0.573916 0,-0.315957 0.2570934,-0.571319 0.57305,-0.571319 0.3176878,0 0.5730499,0.255362 0.5730499,0.571319 0,0.317688 -0.2553621,0.573916 -0.5730499,0.573916 z m 0.2302587,-2.073195 c 0,-0.316822 0.2570934,-0.57305 0.5730499,-0.57305 0.3168222,0 0.57305,0.255362 0.57305,0.57305 0,0.317688 -0.2562278,0.573916 -0.57305,0.573916 C 8.9062875,24.405722 8.6500597,24.15036 8.6500597,23.832672 z m 1.5416953,2.073195 c -0.315957,0 -0.5730504,-0.256228 -0.5730504,-0.573916 0,-0.315957 0.2570934,-0.571319 0.5730504,-0.571319 0.315956,0 0.573049,0.255362 0.573049,0.571319 0,0.317688 -0.257093,0.573916 -0.573049,0.573916 z m 0.402519,-2.073195 c 0,-0.316822 0.257094,-0.57305 0.57305,-0.57305 0.315957,0 0.57305,0.255362 0.57305,0.57305 0,0.317688 -0.257093,0.573916 -0.57305,0.573916 -0.315956,0 -0.57305,-0.256228 -0.57305,-0.573916 z m 1.541695,2.073195 c -0.315956,0 -0.57305,-0.256228 -0.57305,-0.573916 0,-0.315957 0.257094,-0.571319 0.57305,-0.571319 0.315957,0 0.57305,0.255362 0.57305,0.571319 0,0.317688 -0.257093,0.573916 -0.57305,0.573916 z m 0.29951,-2.073195 c 0,-0.316822 0.257093,-0.57305 0.57305,-0.57305 0.315956,0 0.57305,0.255362 0.57305,0.57305 0,0.317688 -0.257094,0.573916 -0.57305,0.573916 -0.315957,0 -0.57305,-0.256228 -0.57305,-0.573916 z m 1.540829,2.073195 c -0.315091,0 -0.572184,-0.256228 -0.572184,-0.573916 0,-0.315957 0.257093,-0.571319 0.572184,-0.571319 0.316822,0 0.573916,0.255362 0.573916,0.571319 0,0.317688 -0.257094,0.573916 -0.573916,0.573916 z m 0.286525,-2.073195 c 0,-0.316822 0.255362,-0.57305 0.571319,-0.57305 0.317687,0 0.57305,0.255362 0.57305,0.57305 0,0.317688 -0.255363,0.573916 -0.57305,0.573916 -0.315957,-8.66e-4 -0.571319,-0.256228 -0.571319,-0.573916 z m 1.539963,2.073195 c -0.315956,0 -0.572184,-0.256228 -0.572184,-0.573916 0,-0.315957 0.256228,-0.571319 0.572184,-0.571319 0.316823,0 0.57305,0.255362 0.57305,0.571319 0,0.317688 -0.256227,0.573916 -0.57305,0.573916 z m 0.03203,-2.957873 c -0.315091,0 -0.571319,-0.257094 -0.571319,-0.573916 0,-0.315956 0.256228,-0.572184 0.571319,-0.572184 0.317688,0 0.57305,0.256228 0.57305,0.572184 0,0.316822 -0.254497,0.573916 -0.57305,0.573916 z m 0.03895,-2.927576 c -0.316822,0 -0.573049,-0.257959 -0.573049,-0.574781 0,-0.315956 0.256227,-0.57305 0.573049,-0.57305 0.315957,0 0.57305,0.257094 0.57305,0.57305 0,0.316822 -0.256227,0.574781 -0.57305,0.574781 z M 17.99112,15.106212 H 8.0008339 L 7.704787,14.007722 7.3983524,15.106212 H 5.0732585 v -2.500817 h 1.1287872 v 0.625853 h 0.6258537 v -0.625853 h 1.874964 v 0.625853 h 0.624988 v -0.625853 h 1.8230256 v 0.625853 h 0.625854 v -0.625853 h 1.770222 v 0.625853 h 0.625854 v -0.625853 h 1.849861 v 0.625853 h 0.625853 v -0.625853 h 1.34433 v 2.500817 z m 1.666346,-2.465326 h 5.83351 v 2.499952 h -5.83351 v -2.499952 z m 3.473791,12.292007 c -1.82216,0 -3.299798,-1.477637 -3.299798,-3.298932 0,-1.821295 1.477638,-3.298933 3.299798,-3.298933 1.82216,0 3.298933,1.477638 3.298933,3.298933 -8.66e-4,1.82216 -1.476773,3.298932 -3.298933,3.298932 z"
     id="path3"
     inkscape:connector-curvature="0"
     style="fill:#ffffff" /><path
     d="m 23.131257,19.377252 c -0.147158,0 -0.289122,0.01558 -0.427623,0.04242 L 22.069989,18.78689 v 0.861306 l 0.01558,-0.0017 c -0.716746,0.379148 -1.210157,1.121863 -1.210157,1.988363 0,1.245647 1.011061,2.256708 2.256709,2.256708 1.245647,0 2.256708,-1.011061 2.256708,-2.256708 -8.65e-4,-1.245648 -1.011926,-2.257575 -2.257574,-2.257575 z"
     id="path5"
     inkscape:connector-curvature="0"
     style="fill:#ffffff" /><g
     id="g7" /><g
     id="g9" /><g
     id="g11" /><g
     id="g13" /><g
     id="g15" /><g
     id="g17" /><g
     id="g19" /><g
     id="g21" /><g
     id="g23" /><g
     id="g25" /><g
     id="g27" /><g
     id="g29" /><g
     id="g31" /><g
     id="g33" /><g
     id="g35" /></svg>